<?xml version="1.0" encoding="UTF-8"?>
<svg xmlns="http://www.w3.org/2000/svg" xmlns:xlink="http://www.w3.org/1999/xlink" width="50px" height="50px" viewBox="0 0 50 50" version="1.1">
<g id="surface1">
<path style="fill-rule:nonzero;fill:rgb(87.45098%,90.196078%,99.215686%);fill-opacity:1;stroke-width:9.1376;stroke-linecap:butt;stroke-linejoin:miter;stroke:rgb(96.078431%,96.862745%,99.607843%);stroke-opacity:1;stroke-miterlimit:10;" d="M 359.4 441.4 L 152.6 441.4 C 107.28 441.4 70.6 404.72 70.6 359.4 L 70.6 152.6 C 70.6 107.28 107.28 70.6 152.6 70.6 L 359.4 70.6 C 404.72 70.6 441.4 107.28 441.4 152.6 L 441.4 359.4 C 441.4 404.72 404.72 441.4 359.4 441.4 Z M 359.4 441.4 " transform="matrix(0.0976562,0,0,0.0976562,0,0)"/>
<path style=" stroke:none;fill-rule:nonzero;fill:rgb(16.470588%,41.176471%,90.196078%);fill-opacity:1;" d="M 36.953125 28.875 L 33.117188 28.875 C 32.414062 28.875 31.835938 28.300781 31.835938 27.597656 L 31.835938 27.207031 C 31.835938 26.503906 32.410156 25.925781 33.117188 25.925781 L 36.953125 25.925781 C 37.65625 25.925781 38.234375 26.503906 38.234375 27.207031 L 38.234375 27.597656 C 38.234375 28.300781 37.65625 28.875 36.953125 28.875 Z M 36.953125 28.875 "/>
<path style=" stroke:none;fill-rule:nonzero;fill:rgb(16.470588%,41.176471%,90.196078%);fill-opacity:1;" d="M 29.628906 28.875 L 25.789062 28.875 C 25.085938 28.875 24.511719 28.300781 24.511719 27.597656 L 24.511719 27.207031 C 24.511719 26.503906 25.085938 25.925781 25.789062 25.925781 L 29.628906 25.925781 C 30.332031 25.925781 30.90625 26.503906 30.90625 27.207031 L 30.90625 27.597656 C 30.90625 28.300781 30.332031 28.875 29.628906 28.875 Z M 29.628906 28.875 "/>
<path style=" stroke:none;fill-rule:nonzero;fill:rgb(16.470588%,41.176471%,90.196078%);fill-opacity:1;" d="M 36.953125 33.46875 L 33.117188 33.46875 C 32.414062 33.46875 31.835938 32.890625 31.835938 32.1875 L 31.835938 31.796875 C 31.835938 31.09375 32.410156 30.515625 33.117188 30.515625 L 36.953125 30.515625 C 37.65625 30.515625 38.234375 31.09375 38.234375 31.796875 L 38.234375 32.1875 C 38.234375 32.890625 37.65625 33.46875 36.953125 33.46875 Z M 36.953125 33.46875 "/>
<path style=" stroke:none;fill-rule:nonzero;fill:rgb(16.470588%,41.176471%,90.196078%);fill-opacity:1;" d="M 29.628906 33.46875 L 25.789062 33.46875 C 25.085938 33.46875 24.511719 32.890625 24.511719 32.1875 L 24.511719 31.796875 C 24.511719 31.09375 25.085938 30.515625 25.789062 30.515625 L 29.628906 30.515625 C 30.332031 30.515625 30.90625 31.09375 30.90625 31.796875 L 30.90625 32.1875 C 30.90625 32.890625 30.332031 33.46875 29.628906 33.46875 Z M 29.628906 33.46875 "/>
<path style=" stroke:none;fill-rule:nonzero;fill:rgb(16.470588%,41.176471%,90.196078%);fill-opacity:1;" d="M 36.953125 38.15625 L 33.117188 38.15625 C 32.414062 38.15625 31.835938 37.578125 31.835938 36.875 L 31.835938 36.484375 C 31.835938 35.78125 32.410156 35.203125 33.117188 35.203125 L 36.953125 35.203125 C 37.65625 35.203125 38.234375 35.78125 38.234375 36.484375 L 38.234375 36.875 C 38.234375 37.578125 37.65625 38.15625 36.953125 38.15625 Z M 36.953125 38.15625 "/>
<path style=" stroke:none;fill-rule:nonzero;fill:rgb(16.470588%,41.176471%,90.196078%);fill-opacity:1;" d="M 29.628906 38.15625 L 25.789062 38.15625 C 25.085938 38.15625 24.511719 37.578125 24.511719 36.875 L 24.511719 36.484375 C 24.511719 35.78125 25.085938 35.203125 25.789062 35.203125 L 29.628906 35.203125 C 30.332031 35.203125 30.90625 35.78125 30.90625 36.484375 L 30.90625 36.875 C 30.90625 37.578125 30.332031 38.15625 29.628906 38.15625 Z M 29.628906 38.15625 "/>
<path style=" stroke:none;fill-rule:nonzero;fill:rgb(29.803922%,69.411765%,32.156863%);fill-opacity:1;" d="M 20.078125 33.992188 L 20.410156 33.78125 C 20.96875 33.40625 21.308594 32.921875 21.375 32.375 C 21.445312 31.867188 21.28125 31.339844 20.9375 30.949219 C 20.59375 30.558594 20.109375 30.332031 19.578125 30.332031 C 19.101562 30.332031 18.652344 30.515625 18.3125 30.851562 C 17.929688 31.230469 17.742188 31.640625 17.765625 32.082031 C 17.78125 32.65625 18.144531 33.261719 18.808594 33.839844 L 19.070312 34.0625 L 16.894531 39.746094 L 16.445312 39.578125 C 15.046875 39.0625 13.730469 37.988281 12.832031 36.632812 C 11.789062 35.070312 11.335938 33.242188 11.53125 31.359375 C 11.933594 27.363281 15.109375 24.296875 19.0625 24.074219 C 19.226562 24.0625 19.394531 24.0625 19.550781 24.0625 C 21.425781 24.0625 23.25 24.6875 24.6875 25.832031 C 26.125 26.972656 27.128906 28.59375 27.507812 30.382812 C 28.445312 34.757812 25.828125 38.332031 22.773438 39.601562 L 22.3125 39.796875 Z M 20.078125 33.992188 "/>
<path style=" stroke:none;fill-rule:nonzero;fill:rgb(87.45098%,90.196078%,99.215686%);fill-opacity:1;" d="M 19.550781 24.539062 C 23.203125 24.539062 26.296875 27 27.03125 30.480469 C 27.871094 34.433594 25.625 37.882812 22.578125 39.140625 C 21.941406 37.5 21.308594 35.859375 20.671875 34.199219 C 22.207031 33.195312 22.117188 31.5625 21.308594 30.632812 C 20.859375 30.117188 20.222656 29.851562 19.589844 29.851562 C 19.003906 29.851562 18.425781 30.066406 17.976562 30.515625 C 16.894531 31.59375 17.089844 33 18.496094 34.21875 C 17.871094 35.851562 17.234375 37.492188 16.609375 39.121094 C 14.121094 38.203125 11.621094 35.242188 12.011719 31.40625 C 12.390625 27.578125 15.4375 24.765625 19.089844 24.558594 C 19.238281 24.539062 19.394531 24.539062 19.550781 24.539062 M 19.550781 23.5625 C 19.375 23.5625 19.210938 23.574219 19.03125 23.585938 C 14.824219 23.820312 11.464844 27.070312 11.042969 31.308594 C 10.839844 33.3125 11.316406 35.242188 12.421875 36.90625 C 13.378906 38.351562 14.785156 39.492188 16.28125 40.039062 L 17.1875 40.371094 L 17.53125 39.472656 L 18.574219 36.757812 L 19.414062 34.570312 L 19.601562 34.09375 L 19.773438 34.542969 L 20.789062 37.179688 L 21.679688 39.484375 L 22.039062 40.421875 L 22.96875 40.039062 C 24.71875 39.316406 26.191406 37.988281 27.128906 36.289062 C 28.144531 34.453125 28.445312 32.375 28 30.273438 C 27.585938 28.371094 26.523438 26.660156 25 25.441406 C 23.46875 24.226562 21.53125 23.5625 19.550781 23.5625 Z M 19.511719 33.789062 L 19.140625 33.46875 C 18.59375 32.988281 18.28125 32.492188 18.261719 32.0625 C 18.25 31.757812 18.390625 31.476562 18.671875 31.191406 C 18.914062 30.949219 19.25 30.8125 19.589844 30.8125 C 19.96875 30.8125 20.332031 30.976562 20.578125 31.261719 C 20.828125 31.542969 20.945312 31.933594 20.898438 32.296875 C 20.839844 32.707031 20.585938 33.066406 20.148438 33.359375 Z M 19.511719 33.789062 "/>
<path style=" stroke:none;fill-rule:nonzero;fill:rgb(16.470588%,41.176471%,90.196078%);fill-opacity:1;" d="M 22.859375 22.023438 C 22.011719 21.570312 21.347656 20.945312 20.867188 20.136719 C 20.382812 19.335938 20.148438 18.429688 20.148438 17.402344 C 20.148438 16.375 20.390625 15.476562 20.867188 14.667969 C 21.359375 13.867188 22.023438 13.242188 22.859375 12.78125 C 23.710938 12.332031 24.667969 12.109375 25.734375 12.109375 C 26.660156 12.109375 27.5 12.273438 28.242188 12.605469 C 28.984375 12.9375 29.472656 13.417969 29.472656 13.417969 C 29.8125 13.757812 29.804688 14.296875 29.445312 14.617188 L 28.917969 15.097656 C 28.554688 15.421875 27.960938 15.4375 27.585938 15.125 C 27.585938 15.125 26.816406 14.492188 25.867188 14.492188 C 25.320312 14.492188 24.824219 14.609375 24.394531 14.851562 C 23.964844 15.097656 23.632812 15.4375 23.386719 15.878906 C 23.152344 16.320312 23.035156 16.828125 23.035156 17.390625 C 23.035156 17.960938 23.152344 18.46875 23.386719 18.90625 C 23.621094 19.34375 23.953125 19.6875 24.394531 19.929688 C 24.824219 20.175781 25.3125 20.292969 25.867188 20.292969 C 26.804688 20.292969 27.585938 19.65625 27.585938 19.65625 C 27.960938 19.355469 28.5625 19.367188 28.917969 19.6875 L 29.445312 20.164062 C 29.804688 20.488281 29.8125 21.035156 29.472656 21.367188 C 29.472656 21.367188 28.984375 21.84375 28.242188 22.179688 C 27.5 22.511719 26.660156 22.675781 25.734375 22.675781 C 24.65625 22.703125 23.703125 22.46875 22.859375 22.023438 Z M 22.859375 22.023438 "/>
</g>
</svg>
